<svg width="30" height="19" viewBox="0 0 30 19" fill="none" xmlns="http://www.w3.org/2000/svg">
<path d="M9.89432 13.6554C9.72004 13.1984 9.65161 12.76 9.67536 12.3109C9.72155 11.4388 9.92995 10.6112 10.4088 9.871C10.9395 9.05048 11.692 8.53451 12.6441 8.32224C12.9138 8.26211 13.1949 8.22044 13.4698 8.22497C13.8422 8.23119 14.1699 8.37022 14.3704 8.71539C14.5196 8.97244 14.5605 9.2538 14.5336 9.54383C14.4493 10.4535 13.8979 11.0612 13.203 11.5696C12.8602 11.8205 12.4793 12.0037 12.0754 12.1329C11.9638 12.1686 11.9049 12.2191 11.9235 12.3324C11.9516 12.5038 11.9689 12.6812 12.0286 12.8421C12.0894 13.0061 12.2201 13.0949 12.4172 13.1009C12.8047 13.1125 13.1534 12.9951 13.4942 12.8328C14.029 12.5783 14.4071 12.1507 14.7548 11.6904C14.8777 11.5277 14.8615 11.3271 14.8814 11.1409C14.9509 10.493 15.0083 9.84376 15.0698 9.19498C15.105 8.82294 15.1465 8.45138 15.17 8.07859C15.1784 7.9454 15.2173 7.87405 15.3512 7.84709C15.9746 7.72172 16.5969 7.59127 17.22 7.46421C17.2571 7.45667 17.2972 7.46327 17.3657 7.46327C17.353 7.62954 17.3436 7.78422 17.3289 7.93842C17.3009 8.2311 17.27 8.52349 17.24 8.81597C17.1604 9.59068 17.0785 10.3651 17.0023 11.1401C16.9822 11.3459 16.9725 11.5532 16.9704 11.7599C16.9681 11.9807 17.0761 12.0494 17.2973 11.9936C17.707 11.8902 17.963 11.6026 18.1715 11.2635C18.4404 10.826 18.627 10.3529 18.7201 9.84791C18.7906 9.46541 18.8435 9.07952 18.8982 8.69428C18.9113 8.602 18.9001 8.50624 18.9001 8.39096C18.816 8.39972 18.7518 8.39332 18.698 8.41405C18.256 8.584 17.7855 8.04126 17.9203 7.57034C17.9963 7.3051 18.1793 7.13742 18.425 7.03449C18.6616 6.93542 18.9065 6.86897 19.1664 6.92449C19.581 7.01299 19.775 7.31151 19.8577 7.69175C20.0339 8.50049 19.9655 9.30385 19.7867 10.105C19.6256 10.8274 19.3605 11.5013 18.9205 12.1021C18.3367 12.8992 17.5603 13.3724 16.584 13.5348C16.2511 13.5902 15.9328 13.5684 15.6187 13.4664C15.326 13.3713 15.116 13.1709 14.9733 12.8993C14.948 12.851 14.9231 12.8024 14.8862 12.7315C14.8015 12.8239 14.7244 12.9 14.6564 12.9835C14.2728 13.4552 13.7813 13.7823 13.2605 14.086C12.4772 14.543 11.6114 14.7276 10.7451 14.9166C10.2718 15.0198 9.79403 15.1063 9.31491 15.1774C8.93015 15.2344 8.54086 15.2762 8.15243 15.2877C7.88841 15.2955 7.71969 15.3782 7.56444 15.6031C7.21719 16.1066 6.84431 16.594 6.45804 17.0686C5.99815 17.6336 5.42487 18.0567 4.7447 18.3301C2.34272 19.3312 -0.356277 18.5471 0.0387599 16.099C0.378561 14.6855 1.27232 13.7763 2.62172 13.3013C3.46835 13.0032 4.3475 12.9477 5.23749 13.0307C5.30092 13.0367 5.36473 13.0392 5.42836 13.0413C5.70614 13.0507 5.72226 13.0389 5.74158 12.757C5.75025 12.63 5.74714 12.5019 5.7429 12.3746C5.73159 12.0405 5.7167 11.7067 5.70341 11.3727C5.66985 10.5297 5.64035 9.68635 5.60095 8.84359C5.5869 8.54205 5.55363 8.24109 5.52073 7.94078C5.49896 7.74199 5.49236 7.74114 5.28254 7.73963C4.95584 7.73728 4.62735 7.7582 4.30263 7.73219C3.55978 7.6728 2.94013 7.38626 2.6172 6.66744C2.39494 6.17278 2.45149 5.67368 2.6861 5.19183C2.70335 5.15639 2.72861 5.12444 2.75302 5.09305C2.92495 4.87163 3.12798 4.8262 3.35345 4.98729C3.56006 5.1349 3.74641 5.31069 3.94492 5.47008C4.22477 5.69479 4.52857 5.85409 4.90485 5.82619C5.19102 5.80498 5.27132 5.74701 5.31157 5.46716C5.38406 4.96363 5.43439 4.45661 5.51772 3.95507C5.68239 2.96413 5.94895 2.00986 6.63053 1.2293C7.12105 0.667524 7.73241 0.304723 8.47931 0.241475C9.11028 0.188125 9.64133 0.447901 10.0104 0.958592C10.7077 1.92361 10.7663 2.95593 10.2544 4.02406C10.0215 4.50996 9.65839 4.90585 9.33264 5.32681C9.03563 5.71063 8.72316 6.08257 8.43237 6.47092C8.26082 6.69996 8.10812 6.95173 8.08607 7.24515C8.07014 7.45686 8.09238 7.6728 8.11218 7.88554C8.16826 8.48691 8.22416 9.08847 8.29476 9.68824C8.35159 10.171 8.40466 10.653 8.37808 11.1397C8.35423 11.5764 8.32897 12.013 8.29692 12.4492C8.27185 12.7899 8.23575 13.1299 8.20389 13.4701C8.19616 13.5526 8.21888 13.61 8.31125 13.6231C8.35838 13.6298 8.40428 13.6538 8.45085 13.6541C8.9195 13.6562 9.38815 13.6554 9.89432 13.6554ZM5.4097 15.0351C4.88279 14.9249 4.36211 14.8656 3.83954 14.9332C3.59192 14.9653 3.35119 15.0611 3.11187 15.1416C2.9619 15.1922 2.82146 15.27 2.67517 15.3321C2.32104 15.4826 2.0771 15.7515 1.90687 16.0831C1.67527 16.534 1.93477 17.0211 2.43132 17.1182C2.94079 17.2177 3.41736 17.1134 3.85688 16.8701C4.56203 16.4797 5.04595 15.8788 5.38538 15.1561C5.40112 15.1228 5.40074 15.0822 5.4097 15.0351ZM7.79877 4.37772C7.92573 4.2106 8.03894 4.06902 8.14413 3.92179C8.43218 3.51865 8.68866 3.09731 8.82204 2.6149C8.90027 2.33194 8.89933 2.04897 8.76228 1.77864C8.67169 1.60002 8.5403 1.5609 8.37299 1.67665C8.30315 1.72501 8.23622 1.79108 8.19465 1.86423C8.11661 2.00184 8.03328 2.14446 7.99615 2.29574C7.90735 2.65741 7.82639 3.02294 7.77615 3.3915C7.73364 3.70358 7.67642 4.02293 7.79877 4.37772ZM11.941 11.2711C11.96 11.2797 11.9673 11.2862 11.9733 11.2852C11.9964 11.2812 12.0208 11.2787 12.0416 11.2689C12.5046 11.0516 12.8443 10.7051 13.0711 10.2521C13.221 9.95263 13.2592 9.62989 13.1839 9.30159C13.1456 9.13428 13.081 9.10798 12.926 9.17462C12.7598 9.24607 12.6409 9.372 12.5418 9.51961C12.1848 10.0514 12.0433 10.6554 11.941 11.2711Z" fill="url(#paint0_radial_11599_528)" fill-opacity="0.9"/>
<path d="M26.1846 5.62614C26.1846 5.7319 26.1846 5.80184 26.1846 5.89855C26.2421 5.8616 26.2866 5.8385 26.3248 5.80759C26.7565 5.45874 27.265 5.28068 27.8041 5.26956C28.6003 5.25326 29.1048 5.62048 29.1886 6.49077C29.2407 7.03257 29.1564 7.5705 29.0771 8.10655C29.0316 8.41326 28.9683 8.72215 28.97 9.02971C28.9724 9.47433 29.0598 9.59498 29.5122 9.46471C29.6743 9.41806 29.8197 9.31315 29.9704 9.23604C30.1133 9.90688 29.7277 10.6027 29.0768 10.8903C28.7678 11.0268 28.4456 11.0977 28.1026 11.086C27.3994 11.0617 26.995 10.5332 26.9472 9.96626C26.9085 9.50675 26.9357 9.04536 27.0075 8.58529C27.0712 8.17781 27.0956 7.76373 27.1253 7.35173C27.133 7.2439 27.1067 7.12975 27.0773 7.02371C27.0083 6.77449 26.8695 6.71426 26.627 6.81662C26.4088 6.90871 26.2788 7.08384 26.1733 7.28707C25.9993 7.62168 25.9768 7.98759 25.9399 8.35124C25.862 9.11822 25.7826 9.88501 25.7071 10.6522C25.6838 10.8896 25.6738 11.1283 25.6523 11.3659C25.6332 11.577 25.6007 11.6084 25.4003 11.6503C24.802 11.7753 24.2038 11.9014 23.6052 12.0253C23.5681 12.033 23.5282 12.0264 23.4597 12.0264C23.4689 11.9124 23.4775 11.8073 23.4885 11.6713C23.4091 11.7236 23.349 11.7564 23.2966 11.7987C22.8255 12.1798 22.2839 12.4061 21.6865 12.4618C21.0056 12.5253 20.4056 12.2299 20.238 11.4202C20.1643 11.0641 20.1742 10.711 20.231 10.3535C20.3083 9.8672 20.3713 9.37866 20.4381 8.89078C20.4536 8.77786 20.4913 8.70509 20.6208 8.67983C21.0497 8.59622 21.4757 8.49857 21.9034 8.40865C22.1349 8.35991 22.3675 8.31571 22.626 8.26424C22.626 8.37245 22.636 8.45841 22.6244 8.54136C22.5519 9.06082 22.4722 9.57924 22.4003 10.0987C22.3753 10.2791 22.3525 10.4616 22.3526 10.6432C22.3528 10.8573 22.4219 10.912 22.6347 10.892C22.9575 10.8617 23.1973 10.6871 23.3889 10.4373C23.5687 10.2029 23.655 9.93101 23.6855 9.64202C23.7505 9.02547 23.8125 8.40855 23.8693 7.79125C23.9108 7.34013 23.9412 6.88798 23.9785 6.43648C23.985 6.35749 24.0069 6.27963 24.0114 6.20074C24.0182 6.07933 24.0959 6.04201 24.1977 6.02137C24.782 5.90288 25.3659 5.7828 25.9501 5.66413C26.019 5.65027 26.0889 5.6416 26.1846 5.62614Z" fill="url(#paint1_radial_11599_528)" fill-opacity="0.9"/>
<path d="M20.0503 3.47491C19.9807 3.42448 19.8843 3.38282 19.8877 3.352C19.8983 3.25652 19.9208 3.13162 19.9869 3.08082C20.069 3.01776 20.0967 2.96064 20.1008 2.86808C20.1043 2.78909 20.1338 2.71038 20.1317 2.63205C20.1265 2.45004 20.2148 2.36493 20.3854 2.32016C20.614 2.26021 20.8367 2.17773 21.0972 2.09356C21.0708 2.35739 21.0477 2.5887 21.0232 2.83264C21.1303 2.81765 21.214 2.80587 21.2966 2.79437C21.3524 3.02822 21.3298 3.0926 21.1375 3.16037C21.0263 3.19959 20.9919 3.27669 20.9813 3.37556C20.9568 3.6048 20.9365 3.83451 20.9152 4.06412C20.9005 4.22238 20.8816 4.38055 20.8744 4.53928C20.8663 4.71894 20.9493 4.76918 21.1101 4.68821C21.2537 4.61582 21.3118 4.50044 21.3019 4.33738C21.276 3.91208 21.3791 3.51497 21.6 3.15217C21.8738 2.70275 22.2958 2.482 22.805 2.43694C23.0583 2.41451 23.2707 2.52611 23.3882 2.77127C23.4222 2.84216 23.4544 2.91389 23.4862 2.9827C23.7773 2.93839 23.8072 2.90606 23.833 2.65308C23.8459 2.52667 23.8498 2.39273 23.8963 2.27793C23.9553 2.13268 24.1231 2.2012 24.2379 2.1585C24.3779 2.10647 24.5305 2.08366 24.6797 2.06453C24.7249 2.05868 24.777 2.10685 24.8421 2.13805C24.9534 2.08168 25.0905 2.00288 25.2349 1.94133C25.4183 1.8631 25.5806 1.92295 25.7134 2.05783C25.8093 2.1552 25.8222 2.35428 25.7558 2.48548C25.6882 2.61895 25.4353 2.78749 25.3049 2.74875C25.2009 2.71783 25.1148 2.62649 25.0043 2.55062C24.7965 2.61217 24.7577 2.66165 24.7368 2.89485C24.6929 3.38584 24.6452 3.87645 24.6009 4.36745C24.5935 4.45002 24.5876 4.53598 24.4913 4.55757C24.2228 4.61751 23.9527 4.6702 23.6511 4.73241C23.6936 4.24236 23.733 3.78757 23.7725 3.33117C23.5195 3.36124 23.5114 3.37085 23.5006 3.62035C23.4775 4.15904 23.256 4.59536 22.7883 4.8705C22.3825 5.10916 21.9525 5.16431 21.4765 4.87625C21.4534 4.91235 21.4272 4.97192 21.3848 5.01575C21.2279 5.17788 21.0477 5.30268 20.8273 5.37045C20.4307 5.49232 20.2473 5.44472 19.9738 5.11878C19.907 5.18589 19.8419 5.25253 19.7754 5.31757C19.4093 5.67528 18.974 5.85324 18.4588 5.82657C18.1636 5.8113 17.9233 5.62089 17.8616 5.33199C17.8187 5.13047 17.7726 4.92602 17.8384 4.71828C17.847 4.69094 17.8396 4.65852 17.8396 4.62741C17.6544 4.61007 17.665 4.73072 17.6628 4.84345C17.6565 5.17939 17.5587 5.48695 17.3586 5.75653C17.0249 6.20614 16.5733 6.38278 16.0225 6.30851C15.656 6.25902 15.5043 6.01065 15.4739 5.7324C15.404 5.09455 15.5447 4.50846 16.0512 4.06525C16.3514 3.80256 16.7064 3.67804 17.1098 3.71801C17.3399 3.74082 17.4852 3.8741 17.5694 4.0826C17.5929 4.14075 17.6166 4.19882 17.6397 4.25575C17.8504 4.22191 17.9907 4.12388 18.0924 3.93706C18.3157 3.52704 18.6791 3.29177 19.1339 3.2157C19.2843 3.19054 19.4513 3.21024 19.6006 3.2486C19.757 3.28885 19.8644 3.49886 19.856 3.6688C19.8473 3.84262 19.7366 3.98184 19.5638 4.03632C19.3652 4.0989 19.2774 4.02783 19.2794 3.82225C19.2799 3.75986 19.2409 3.69708 19.2201 3.63449C19.1546 3.67031 19.0604 3.69001 19.0291 3.74525C18.9515 3.8822 18.8833 4.03085 18.8464 4.18326C18.7791 4.46067 18.7204 4.74363 18.8057 5.03046C18.8506 5.18137 18.8915 5.2136 19.0438 5.19758C19.4408 5.15592 19.7116 4.92366 19.9217 4.60451C19.9385 4.57906 19.9483 4.54578 19.9515 4.51515C19.9856 4.19109 20.0179 3.86684 20.0498 3.5425C20.053 3.51158 20.0503 3.48029 20.0503 3.47491ZM22.2486 3.98466C22.2556 4.05818 22.2544 4.14697 22.274 4.23096C22.3264 4.45539 22.4881 4.50374 22.6477 4.33276C22.7257 4.24906 22.775 4.13387 22.8203 4.02576C22.8566 3.93904 22.862 3.83998 22.8905 3.7493C22.9242 3.64222 22.923 3.55503 22.8298 3.47086C22.7158 3.36793 22.7109 3.23569 22.7747 3.09948C22.7914 3.06366 22.8176 3.02813 22.8201 2.99109C22.8225 2.95668 22.807 2.91304 22.7837 2.88816C22.77 2.87345 22.7143 2.87477 22.6971 2.89042C22.6161 2.96384 22.5173 3.03237 22.4699 3.1255C22.3359 3.38876 22.2666 3.67389 22.2486 3.98466ZM16.4217 5.24443C16.4217 5.31606 16.4063 5.39232 16.4258 5.4582C16.4488 5.53559 16.4872 5.64304 16.5464 5.66576C16.6103 5.69036 16.7113 5.64267 16.786 5.606C16.8305 5.58413 16.8709 5.52739 16.8866 5.478C16.9488 5.28194 17.0029 5.08324 17.0538 4.88389C17.0619 4.85222 17.0502 4.79792 17.0271 4.77879C16.852 4.63391 16.8604 4.47075 16.9602 4.28902C16.9751 4.26169 16.9742 4.20381 16.9556 4.18553C16.9334 4.16366 16.8694 4.15046 16.8493 4.1663C16.7706 4.22832 16.6801 4.29119 16.6337 4.37555C16.4862 4.64391 16.4104 4.93507 16.4217 5.24443Z" fill="url(#paint2_radial_11599_528)" fill-opacity="0.9"/>
<path d="M12.8841 4.0163C12.447 4.36609 12.3713 4.72418 12.5905 5.31273C12.3702 5.36127 12.146 5.41312 11.9564 5.2771C11.7732 5.1458 11.7477 4.92882 11.7948 4.71363C11.8454 4.48232 11.9605 4.28022 12.1263 4.11546C12.7311 3.51438 13.4574 3.18485 14.3157 3.25026C14.8938 3.29428 15.2208 3.59629 15.36 4.20171C15.5286 4.93428 15.3769 5.62887 14.9748 6.25541C14.7387 6.6232 14.4018 6.87638 13.9334 6.87431C13.8237 6.87384 13.7142 6.84396 13.5987 6.8268C13.3274 7.06726 12.9639 7.02013 12.6132 7.12664C12.5621 6.75894 12.6808 6.42932 12.6916 6.09357C12.7024 5.75301 12.7514 5.41378 12.7838 5.07388C12.8158 4.73521 12.848 4.39673 12.8841 4.0163ZM13.8004 3.68329C13.8153 3.72778 13.8306 3.7504 13.8287 3.77151C13.7936 4.16721 13.7569 4.56281 13.7196 4.95832C13.6815 5.36193 13.6386 5.76508 13.6054 6.16907C13.59 6.35796 13.6526 6.40208 13.832 6.34147C14.0418 6.27049 14.1705 6.11251 14.2657 5.92126C14.3772 5.69721 14.41 5.45289 14.4616 5.21159C14.544 4.8256 14.4927 4.44989 14.4023 4.07738C14.3355 3.80215 14.1177 3.62522 13.85 3.63587C13.5736 3.64681 13.3147 3.73843 13.085 3.90819C13.3225 3.83363 13.56 3.75888 13.8004 3.68329Z" fill="url(#paint3_radial_11599_528)" fill-opacity="0.9"/>
<path d="M22.8305 7.15766C22.8428 7.45872 22.716 7.7087 22.4984 7.89448C22.1044 8.23089 21.6617 8.38755 21.1313 8.2274C20.652 8.08272 20.2848 7.54648 20.5371 6.97857C20.8535 6.26636 21.9011 5.93504 22.5317 6.48645C22.7283 6.65847 22.8325 6.88036 22.8305 7.15766Z" fill="url(#paint4_radial_11599_528)" fill-opacity="0.9"/>
<defs>
<radialGradient id="paint0_radial_11599_528" cx="0" cy="0" r="1" gradientUnits="userSpaceOnUse" gradientTransform="translate(7.06418e-07 15.6107) rotate(-16.8135) scale(20.8517 28.7805)">
<stop stop-color="#243761"/>
<stop offset="0.678608" stop-color="#19456D"/>
<stop offset="1" stop-color="#26345E"/>
</radialGradient>
<radialGradient id="paint1_radial_11599_528" cx="0" cy="0" r="1" gradientUnits="userSpaceOnUse" gradientTransform="translate(20.1855 11.2479) rotate(-13.4396) scale(10.0908 11.3707)">
<stop stop-color="#243761"/>
<stop offset="0.678608" stop-color="#19456D"/>
<stop offset="1" stop-color="#26345E"/>
</radialGradient>
<radialGradient id="paint2_radial_11599_528" cx="0" cy="0" r="1" gradientUnits="userSpaceOnUse" gradientTransform="translate(15.4572 5.57501) rotate(-7.92297) scale(10.4397 7.10478)">
<stop stop-color="#243761"/>
<stop offset="0.678608" stop-color="#19456D"/>
<stop offset="1" stop-color="#26345E"/>
</radialGradient>
<radialGradient id="paint3_radial_11599_528" cx="0" cy="0" r="1" gradientUnits="userSpaceOnUse" gradientTransform="translate(11.7742 6.46733) rotate(-19.0992) scale(3.86656 5.95939)">
<stop stop-color="#243761"/>
<stop offset="0.678608" stop-color="#19456D"/>
<stop offset="1" stop-color="#26345E"/>
</radialGradient>
<radialGradient id="paint4_radial_11599_528" cx="0" cy="0" r="1" gradientUnits="userSpaceOnUse" gradientTransform="translate(20.4551 7.93747) rotate(-15.9136) scale(2.47093 3.24776)">
<stop stop-color="#243761"/>
<stop offset="0.678608" stop-color="#19456D"/>
<stop offset="1" stop-color="#26345E"/>
</radialGradient>
</defs>
</svg>
