<svg width="19" height="19" viewBox="0 0 19 19" fill="none" xmlns="http://www.w3.org/2000/svg">
<path d="M8.42069 10.4962C7.10652 9.19252 6.11584 7.73282 5.45763 6.25194C5.31836 5.93883 5.40035 5.57223 5.64409 5.33043L7.18458 4.57718C7.93826 3.8295 7.31768 2.61382 6.65948 1.96085L5.34082 0.652689C4.46359 -0.217563 3.04159 -0.217563 2.16436 0.652689L1.43202 1.3792C0.599711 2.20488 -0.18573 3.87524 0.0389133 5.05637C0.593783 7.96798 3.27463 11.7052 6.02539 14.434C8.77616 17.1629 11.44 18.4161 14.375 18.9666C15.5656 19.1894 16.7786 18.255 17.6109 17.4293L18.3421 16.7039C19.2193 15.8336 19.2193 14.423 18.3421 13.5527L17.0245 12.2456C16.3663 11.5927 15.2993 11.5927 14.6422 12.2456L13.5873 13.8089C13.3435 14.0507 12.961 13.5527 12.699 13.4379C11.2063 12.7838 9.73485 11.7999 8.42069 10.4962Z" fill="#313640"/>
</svg>
