<svg width="16" height="19" viewBox="0 0 16 19" fill="none" xmlns="http://www.w3.org/2000/svg">
<path d="M3.53638 5.26132C3.53816 6.4238 4.00113 7.53808 4.82367 8.35954C5.64621 9.181 6.76109 9.64251 7.92358 9.64276C9.08471 9.64098 10.1977 9.17868 11.0184 8.35727C11.8391 7.53587 12.3004 6.42245 12.3012 5.26132C12.3002 4.10027 11.8387 2.987 11.0181 2.16565C10.1975 1.34431 9.08463 0.881916 7.92358 0.879883C6.76117 0.88039 5.64644 1.34198 4.82395 2.16339C4.00147 2.98479 3.53841 4.09892 3.53638 5.26132Z" fill="#313640"/>
<path d="M3.03718 18.1599H12.7908C14.4295 18.1599 15.5863 17.0664 15.6708 15.4191C15.6813 13.6978 14.6215 12.2501 12.9031 11.6367C12.0871 11.3515 11.1857 11.5733 10.2343 11.8114C9.4951 11.9957 8.73766 12.1733 7.9111 12.1791C7.07686 12.1771 6.33766 11.9947 5.60038 11.8085C4.64518 11.5685 3.74182 11.3419 2.92294 11.6357C1.21702 12.2415 0.158142 13.692 0.158142 15.4373C0.229182 17.0655 1.38694 18.1589 3.03814 18.1589L3.03718 18.1599Z" fill="#313640"/>
</svg>
