<svg width="16" height="19" viewBox="0 0 16 19" fill="none" xmlns="http://www.w3.org/2000/svg">
<path d="M3.5365 5.26145C3.53828 6.42393 4.00126 7.5382 4.82379 8.35966C5.64633 9.18112 6.76122 9.64263 7.9237 9.64289C9.08483 9.64111 10.1978 9.1788 11.0185 8.35739C11.8392 7.53599 12.3005 6.42258 12.3013 5.26145C12.3003 4.10039 11.8389 2.98713 11.0182 2.16578C10.1976 1.34443 9.08475 0.882038 7.9237 0.880005C6.76129 0.880512 5.64656 1.34211 4.82407 2.16351C4.00159 2.98491 3.53853 4.09904 3.5365 5.26145Z" fill="url(#paint0_radial_11599_540)" fill-opacity="0.9"/>
<path d="M3.03724 18.16H12.7908C14.4296 18.16 15.5864 17.0665 15.6708 15.4192C15.6814 13.6979 14.6216 12.2502 12.9032 11.6368C12.0872 11.3517 11.1857 11.5734 10.2344 11.8115C9.49516 11.9958 8.73772 12.1734 7.91116 12.1792C7.07692 12.1773 6.33772 11.9949 5.60044 11.8086C4.64524 11.5686 3.74188 11.3421 2.923 11.6358C1.21708 12.2416 0.158203 13.6921 0.158203 15.4374C0.229243 17.0656 1.387 18.159 3.0382 18.159L3.03724 18.16Z" fill="url(#paint1_radial_11599_540)" fill-opacity="0.9"/>
<defs>
<radialGradient id="paint0_radial_11599_540" cx="0" cy="0" r="1" gradientUnits="userSpaceOnUse" gradientTransform="translate(3.5365 8.15561) rotate(-18.0361) scale(9.21774 13.5273)">
<stop stop-color="#243761"/>
<stop offset="0.678608" stop-color="#19456D"/>
<stop offset="1" stop-color="#26345E"/>
</radialGradient>
<radialGradient id="paint1_radial_11599_540" cx="0" cy="0" r="1" gradientUnits="userSpaceOnUse" gradientTransform="translate(0.158204 17.0291) rotate(-7.9637) scale(15.6638 10.7134)">
<stop stop-color="#243761"/>
<stop offset="0.678608" stop-color="#19456D"/>
<stop offset="1" stop-color="#26345E"/>
</radialGradient>
</defs>
</svg>
