<svg width="18" height="17" viewBox="0 0 18 17" fill="none" xmlns="http://www.w3.org/2000/svg">
<path d="M15.25 0H12.75C11.3693 0 10.25 1.11929 10.25 2.5V5C10.25 6.38071 11.3693 7.5 12.75 7.5H15.25C16.6307 7.5 17.75 6.38071 17.75 5V2.5C17.75 1.11929 16.6307 0 15.25 0Z" fill="url(#paint0_radial_11599_558)" fill-opacity="0.9"/>
<path d="M15.25 9.5H12.75C11.3693 9.5 10.25 10.6193 10.25 12V14.5C10.25 15.8807 11.3693 17 12.75 17H15.25C16.6307 17 17.75 15.8807 17.75 14.5V12C17.75 10.6193 16.6307 9.5 15.25 9.5Z" fill="url(#paint1_radial_11599_558)" fill-opacity="0.9"/>
<path d="M5.75 0H3.25C1.86929 0 0.75 1.11929 0.75 2.5V5C0.75 6.38071 1.86929 7.5 3.25 7.5H5.75C7.13071 7.5 8.25 6.38071 8.25 5V2.5C8.25 1.11929 7.13071 0 5.75 0Z" fill="url(#paint2_radial_11599_558)" fill-opacity="0.9"/>
<path d="M5.75 9.5H3.25C1.86929 9.5 0.75 10.6193 0.75 12V14.5C0.75 15.8807 1.86929 17 3.25 17H5.75C7.13071 17 8.25 15.8807 8.25 14.5V12C8.25 10.6193 7.13071 9.5 5.75 9.5Z" fill="url(#paint3_radial_11599_558)" fill-opacity="0.9"/>
<defs>
<radialGradient id="paint0_radial_11599_558" cx="0" cy="0" r="1" gradientUnits="userSpaceOnUse" gradientTransform="translate(10.25 6.22706) rotate(-18.0398) scale(7.88775 11.5776)">
<stop stop-color="#243761"/>
<stop offset="0.678608" stop-color="#19456D"/>
<stop offset="1" stop-color="#26345E"/>
</radialGradient>
<radialGradient id="paint1_radial_11599_558" cx="0" cy="0" r="1" gradientUnits="userSpaceOnUse" gradientTransform="translate(10.25 15.7271) rotate(-18.0398) scale(7.88775 11.5776)">
<stop stop-color="#243761"/>
<stop offset="0.678608" stop-color="#19456D"/>
<stop offset="1" stop-color="#26345E"/>
</radialGradient>
<radialGradient id="paint2_radial_11599_558" cx="0" cy="0" r="1" gradientUnits="userSpaceOnUse" gradientTransform="translate(0.75 6.22706) rotate(-18.0398) scale(7.88775 11.5776)">
<stop stop-color="#243761"/>
<stop offset="0.678608" stop-color="#19456D"/>
<stop offset="1" stop-color="#26345E"/>
</radialGradient>
<radialGradient id="paint3_radial_11599_558" cx="0" cy="0" r="1" gradientUnits="userSpaceOnUse" gradientTransform="translate(0.75 15.7271) rotate(-18.0398) scale(7.88775 11.5776)">
<stop stop-color="#243761"/>
<stop offset="0.678608" stop-color="#19456D"/>
<stop offset="1" stop-color="#26345E"/>
</radialGradient>
</defs>
</svg>
